<svg width="20" height="21" viewBox="0 0 20 21" fill="none" xmlns="http://www.w3.org/2000/svg">
<path d="M18.75 10.9167C18.75 9.6 18.0208 8.45833 16.96 7.91667C17.0883 7.55417 17.1583 7.1625 17.1583 6.75C17.1583 4.90833 15.7333 3.41833 13.9767 3.41833C13.585 3.41833 13.21 3.48833 12.8633 3.62667C12.3483 2.5125 11.2583 1.75 10 1.75C8.74168 1.75 7.65334 2.51417 7.13584 3.625C6.79001 3.4875 6.41418 3.41667 6.02251 3.41667C4.26418 3.41667 2.84084 4.90833 2.84084 6.75C2.84084 7.16167 2.91001 7.55333 3.03834 7.91667C1.97834 8.45833 1.24918 9.59833 1.24918 10.9167C1.24918 12.1625 1.90084 13.2483 2.86751 13.8217C2.85084 13.9633 2.84084 14.105 2.84084 14.25C2.84084 16.0917 4.26418 17.5833 6.02251 17.5833C6.41418 17.5833 6.78918 17.5117 7.13501 17.375C7.65168 18.4867 8.74001 19.25 9.99918 19.25C11.2592 19.25 12.3475 18.4867 12.8633 17.375C13.2092 17.5108 13.5842 17.5817 13.9767 17.5817C15.735 17.5817 17.1583 16.09 17.1583 14.2483C17.1583 14.1033 17.1483 13.9617 17.1308 13.8208C18.0958 13.2483 18.75 12.1625 18.75 10.9175V10.9167ZM13.2367 8.13833L9.62501 13.555C9.50418 13.7358 9.30668 13.8333 9.10418 13.8333C8.98501 13.8333 8.86418 13.8 8.75751 13.7283L8.66168 13.65L6.64918 11.6375C6.40501 11.3933 6.40501 10.9975 6.64918 10.7542C6.89334 10.5108 7.28918 10.5092 7.53251 10.7542L9.00751 12.2267L12.195 7.44333C12.3867 7.15583 12.775 7.08 13.0617 7.27083C13.35 7.4625 13.4283 7.85083 13.2367 8.1375V8.13833Z" fill="#D9D9D9"/>
</svg>
